<?xml version="1.0" standalone="no"?>
<!DOCTYPE svg PUBLIC "-//W3C//DTD SVG 20010904//EN"
 "http://www.w3.org/TR/2001/REC-SVG-20010904/DTD/svg10.dtd">
<svg version="1.0" xmlns="http://www.w3.org/2000/svg"
 width="1024.000000pt" height="1024.000000pt" viewBox="0 0 1024.000000 1024.000000"
 preserveAspectRatio="xMidYMid meet">
<metadata>
Created by potrace 1.14, written by Peter Selinger 2001-2017
</metadata>
<g transform="translate(0.000000,1024.000000) scale(0.100000,-0.100000)"
fill="#000000" stroke="none">
<path d="M4857 10234 c-1 -2 -50 -6 -107 -9 -58 -3 -116 -7 -130 -9 -14 -3
-52 -7 -85 -11 -83 -9 -112 -13 -255 -37 -69 -11 -134 -22 -145 -24 -160 -23
-565 -139 -800 -227 -193 -73 -235 -91 -449 -192 -98 -45 -386 -202 -396 -214
-3 -3 -21 -15 -40 -25 -74 -40 -441 -292 -460 -316 -3 -3 -23 -19 -45 -36 -38
-28 -75 -58 -99 -79 -6 -6 -40 -35 -76 -65 -160 -136 -390 -366 -520 -520 -19
-23 -46 -54 -60 -69 -14 -16 -36 -43 -50 -61 -14 -18 -30 -38 -35 -44 -25 -27
-169 -223 -178 -243 -6 -13 -14 -23 -19 -23 -4 0 -8 -6 -8 -14 0 -8 -4 -16 -8
-18 -12 -4 -72 -95 -72 -107 0 -6 -4 -11 -10 -11 -5 0 -10 -7 -10 -15 0 -8 -4
-15 -10 -15 -5 0 -12 -11 -16 -25 -3 -14 -10 -25 -15 -25 -5 0 -9 -7 -9 -15 0
-8 -4 -15 -9 -15 -5 0 -11 -8 -15 -17 -3 -10 -19 -40 -35 -68 -17 -27 -38 -66
-48 -85 -9 -19 -22 -38 -27 -42 -7 -5 -7 -8 -1 -8 6 0 6 -3 -1 -8 -9 -6 -158
-296 -160 -312 -1 -9 -25 -63 -42 -95 -9 -16 -16 -32 -15 -35 1 -3 -8 -25 -19
-50 -11 -24 -21 -49 -22 -55 -1 -5 -4 -14 -7 -20 -4 -5 -14 -35 -24 -65 -10
-30 -20 -59 -24 -65 -3 -5 -6 -12 -7 -15 0 -3 -4 -14 -8 -25 -23 -61 -36 -96
-36 -100 0 -3 -1 -7 -1 -10 -1 -3 -2 -8 -3 -12 -1 -5 -13 -42 -26 -83 -28 -90
-35 -116 -54 -195 -2 -5 -8 -30 -15 -55 -7 -25 -15 -56 -18 -70 -2 -14 -13
-63 -23 -110 -10 -47 -21 -98 -24 -115 -3 -16 -8 -46 -11 -65 -4 -19 -8 -51
-10 -70 -3 -19 -7 -46 -10 -60 -3 -14 -7 -45 -10 -70 -13 -109 -16 -137 -20
-170 -25 -199 -26 -859 -1 -998 2 -9 7 -48 11 -87 4 -38 8 -77 10 -85 1 -8 6
-37 9 -63 4 -27 9 -58 11 -69 3 -11 7 -40 10 -65 2 -24 7 -48 10 -53 3 -4 7
-25 10 -46 12 -101 82 -379 149 -589 45 -145 123 -354 137 -371 6 -8 9 -14 6
-14 -3 0 14 -44 37 -98 179 -403 358 -709 618 -1055 86 -115 111 -145 153
-192 11 -13 40 -47 65 -76 131 -154 332 -355 511 -511 91 -79 95 -82 129 -108
18 -14 42 -33 54 -42 11 -10 26 -21 31 -26 6 -4 26 -19 45 -32 19 -14 46 -35
60 -48 14 -12 33 -25 42 -28 10 -3 18 -10 18 -15 0 -5 7 -9 15 -9 8 0 15 -3
15 -7 0 -5 23 -21 50 -38 27 -16 50 -33 50 -37 0 -5 7 -8 15 -8 8 0 15 -4 15
-9 0 -5 8 -11 17 -15 21 -6 51 -25 71 -43 7 -7 20 -13 28 -13 8 0 14 -4 14
-10 0 -5 7 -10 15 -10 8 0 15 -3 15 -7 0 -5 10 -13 23 -19 12 -6 36 -19 52
-29 101 -58 167 -92 310 -163 172 -85 196 -96 208 -94 4 1 7 -2 7 -8 0 -5 6
-10 14 -10 7 0 35 -10 62 -22 27 -12 51 -23 54 -23 3 -1 16 -6 30 -12 14 -6
52 -21 85 -33 33 -12 80 -30 105 -40 41 -16 101 -33 108 -31 1 1 16 -6 32 -14
17 -9 30 -13 30 -9 0 4 7 0 17 -7 9 -8 17 -12 17 -10 1 2 21 -3 46 -10 57 -16
60 -17 88 -23 29 -8 42 -11 132 -36 41 -11 89 -22 105 -24 17 -3 59 -12 95
-20 67 -15 96 -21 165 -31 22 -4 54 -8 70 -11 17 -2 41 -7 55 -9 26 -6 53 -9
155 -20 33 -3 71 -8 85 -10 141 -25 849 -25 1002 0 13 2 48 6 78 10 30 3 71 8
91 10 226 26 617 113 874 195 55 18 104 33 110 35 5 1 21 6 35 12 14 6 66 25
115 43 50 18 99 37 110 43 11 6 25 12 30 13 17 3 164 69 290 129 124 60 349
183 445 243 184 117 416 278 450 312 3 3 23 19 45 35 42 31 73 57 111 90 12
12 44 39 70 60 136 114 407 385 509 509 17 20 44 51 60 70 17 18 41 48 55 66
14 18 35 44 47 59 13 14 23 29 23 32 0 3 10 17 23 31 37 42 55 65 66 86 6 11
17 26 23 34 16 17 106 148 135 196 12 20 25 42 30 48 18 22 34 50 39 67 4 9 9
17 13 17 4 0 20 26 36 57 17 32 32 60 35 63 9 9 205 388 208 403 1 4 8 20 16
36 9 16 12 31 9 35 -4 3 -1 6 5 6 7 0 12 7 12 15 0 8 4 23 9 33 20 39 46 105
51 127 1 6 5 15 10 20 6 8 29 69 35 95 1 3 6 16 12 30 15 36 67 195 64 195 -1
0 6 23 17 50 11 28 20 52 20 55 0 3 3 12 6 20 2 8 7 26 10 40 2 14 12 52 21
85 9 33 18 68 20 78 2 10 6 26 9 35 3 9 8 33 11 52 3 19 10 51 15 70 5 19 12
49 14 65 3 17 8 41 11 55 2 13 7 42 10 65 10 65 15 98 20 125 6 27 10 59 20
160 4 36 9 74 11 85 24 124 24 848 0 995 -3 14 -7 52 -11 85 -47 450 -186 977
-380 1430 -53 124 -212 450 -229 469 -6 6 -24 38 -40 70 -16 32 -34 63 -40 70
-6 6 -20 27 -30 46 -21 37 -142 226 -157 244 -5 6 -41 56 -80 111 -40 55 -75
102 -78 105 -4 3 -20 23 -37 45 -32 44 -61 80 -84 105 -8 9 -37 43 -65 75 -99
118 -285 309 -414 425 -124 111 -137 122 -174 153 -22 18 -47 39 -57 48 -10 8
-31 24 -45 35 -15 10 -35 26 -45 34 -10 8 -28 22 -41 30 -12 8 -29 23 -38 33
-8 9 -21 17 -27 17 -7 0 -14 4 -16 8 -5 12 -198 145 -282 194 -56 33 -66 40
-122 76 -28 17 -56 32 -62 32 -5 0 -12 3 -14 8 -1 4 -25 19 -53 34 -77 41
-359 183 -365 183 -3 0 -15 6 -26 13 -12 6 -24 8 -28 5 -3 -3 -6 -1 -6 5 0 7
-3 11 -7 10 -7 -1 -24 5 -93 35 -14 6 -27 11 -30 12 -3 0 -14 6 -25 12 -21 11
-96 37 -105 35 -3 0 -9 3 -15 8 -8 6 -69 29 -95 35 -3 1 -17 7 -33 13 -15 7
-38 14 -51 16 -14 2 -35 10 -48 17 -12 7 -24 11 -26 10 -1 -1 -26 6 -55 15
-28 9 -86 24 -127 34 -41 10 -100 25 -130 34 -30 8 -68 17 -85 20 -48 9 -75
15 -93 20 -9 3 -30 8 -47 11 -16 2 -39 7 -50 9 -18 3 -56 9 -137 22 -16 2 -43
7 -60 10 -18 3 -49 8 -68 10 -19 2 -53 5 -75 8 -88 11 -163 19 -210 22 -68 5
-644 12 -648 8z"/>
</g>
</svg>
